<svg xmlns="http://www.w3.org/2000/svg" width="49" height="49" viewBox="0 0 49 49">
  <path d="M49 24.5A24.5 24.5 0 0 1 0 24.5A24.5 24.5 0 0 1 49 24.5Z" fill="#292929"></path>
  <path d="M23.5141 7.72655C23.8144 6.75783 25.1861 6.7578 25.4864 7.72655L25.9716 9.29227C26.225 10.1102 27.3069 10.2821 27.8007 9.58257L28.7455 8.24331C29.3304 7.41468 30.6347 7.83805 30.621 8.85212L30.5989 10.4918C30.5874 11.3478 31.5628 11.8449 32.2486 11.3324L33.5616 10.3506C34.374 9.74327 35.4835 10.5495 35.1569 11.5098L34.6294 13.0614C34.3537 13.8721 35.1278 14.6467 35.9385 14.3711L37.4907 13.8436C38.451 13.517 39.2573 14.6265 38.6499 15.4389L37.6681 16.7513C37.1554 17.4371 37.6526 18.4133 38.5088 18.4017L40.1478 18.3795C41.162 18.3656 41.5859 19.6694 40.7572 20.2543L39.418 21.1998C38.7185 21.6936 38.8898 22.7754 39.7076 23.029L41.2733 23.5141C42.2422 23.8144 42.2422 25.1862 41.2733 25.4864L39.7076 25.9716C38.8898 26.2252 38.7184 27.307 39.418 27.8007L40.7572 28.7455C41.5859 29.3305 41.162 30.6349 40.1478 30.621L38.5088 30.5989C37.6526 30.5872 37.1556 31.5628 37.6681 32.2486L38.6499 33.5616C39.2572 34.374 38.451 35.4835 37.4907 35.1569L35.9385 34.6294C35.1278 34.3538 34.3538 35.1278 34.6294 35.9385L35.1569 37.4907C35.4835 38.451 34.374 39.2572 33.5616 38.6499L32.2486 37.6681C31.5628 37.1556 30.5872 37.6526 30.5989 38.5088L30.621 40.1478C30.6349 41.162 29.3305 41.5859 28.7455 40.7572L27.8007 39.418C27.307 38.7184 26.2252 38.8899 25.9716 39.7076L25.4864 41.2733C25.1862 42.2422 23.8144 42.2422 23.5141 41.2733L23.029 39.7076C22.7754 38.8898 21.6936 38.7185 21.1998 39.418L20.2543 40.7572C19.6694 41.5859 18.3656 41.162 18.3795 40.1478L18.4017 38.5088C18.4133 37.6526 17.4371 37.1554 16.7513 37.6681L15.4389 38.6499C14.6265 39.2573 13.517 38.451 13.8436 37.4907L14.3711 35.9385C14.6467 35.1278 13.8721 34.3537 13.0614 34.6294L11.5098 35.1569C10.5495 35.4835 9.74327 34.374 10.3506 33.5616L11.3324 32.2486C11.8449 31.5628 11.3478 30.5874 10.4918 30.5989L8.85212 30.621C7.83805 30.6347 7.41468 29.3304 8.24331 28.7455L9.58257 27.8007C10.2821 27.3069 10.1102 26.225 9.29227 25.9716L7.72655 25.4864C6.7578 25.1861 6.75783 23.8144 7.72655 23.5141L9.29227 23.029C10.1102 22.7755 10.282 21.6937 9.58257 21.1998L8.24331 20.2543C7.41468 19.6695 7.83805 18.3658 8.85212 18.3795L10.4918 18.4017C11.3479 18.4132 11.8451 17.4371 11.3324 16.7513L10.3506 15.4389C9.74327 14.6265 10.5495 13.517 11.5098 13.8436L13.0614 14.3711C13.8722 14.6469 14.6469 13.8722 14.3711 13.0614L13.8436 11.5098C13.517 10.5495 14.6265 9.74327 15.4389 10.3506L16.7513 11.3324C17.4371 11.8451 18.4132 11.3479 18.4017 10.4918L18.3795 8.85212C18.3658 7.83805 19.6695 7.41468 20.2543 8.24331L21.1998 9.58257C21.6937 10.282 22.7755 10.1102 23.029 9.29227L23.5141 7.72655ZM24.5006 13.4902C18.4201 13.4902 13.4909 18.4195 13.4908 24.4999C13.4908 30.5805 18.4201 35.5097 24.5006 35.5097C30.581 35.5095 35.5104 30.5804 35.5104 24.4999C35.5103 18.4196 30.5809 13.4903 24.5006 13.4902Z" fill="#D9D9D9"></path>
  <path d="M28.6289 24.5001C28.6289 26.7803 26.7805 28.6288 24.5003 28.6288C22.2201 28.6288 20.3716 26.7803 20.3716 24.5001C20.3716 22.2199 22.2201 20.3714 24.5003 20.3714C26.7805 20.3714 28.6289 22.2199 28.6289 24.5001Z" fill="#D9D9D9"></path>
  <path d="M34.0226 16.2917L32.5291 14.8665L25.8763 21.8385L27.3698 23.2636L34.0226 16.2917Z" fill="#D9D9D9"></path>
  <path d="M24.4482 26.8966L26.3931 26.2045L29.9758 36.2722L28.0309 36.9643L24.4482 26.8966Z" fill="#D9D9D9"></path>
  <path d="M21.816 23.4847L21.651 25.5425L12.7342 24.8272L12.8992 22.7695L21.816 23.4847Z" fill="#D9D9D9"></path>
</svg>
